<?xml version="1.0" encoding="utf-8"?>
<svg version="1.1" xmlns="http://www.w3.org/2000/svg" xmlns:xlink="http://www.w3.org/1999/xlink" x="0px" y="0px"
	 viewBox="0 0 13 13" style="enable-background:new 0 0 13 13;" xml:space="preserve">
<g>
	<path d="M1,0C0.4,0,0,0.4,0,1v11c0,0.6,0.4,1,1,1s1-0.4,1-1V1C2,0.4,1.6,0,1,0z"/>
	<path d="M5,5C4.4,5,4,5.4,4,6v6c0,0.6,0.4,1,1,1s1-0.4,1-1V6C6,5.4,5.6,5,5,5z"/>
	<path d="M8,3C7.4,3,7,3.4,7,4v8c0,0.6,0.4,1,1,1s1-0.4,1-1V4C9,3.4,8.6,3,8,3z"/>
	<path d="M12,8c-0.6,0-1,0.4-1,1v3c0,0.6,0.4,1,1,1s1-0.4,1-1V9C13,8.4,12.6,8,12,8z"/>
</g>
</svg>
