<?xml version="1.0" encoding="utf-8"?>
<svg version="1.1" xmlns="http://www.w3.org/2000/svg" xmlns:xlink="http://www.w3.org/1999/xlink" x="0px" y="0px"
	 viewBox="0 0 2.5 15.8" style="enable-background:new 0 0 2.5 15.8;" xml:space="preserve">
<path id="Path" class="st0" d="M2.5,1.3C2.5,0.6,1.9,0,1.3,0S0,0.6,0,1.3s0.6,1.3,1.3,1.3S2.5,1.9,2.5,1.3z"/>
<path id="Path_1_" class="st0" d="M2.5,14.6c0-0.7-0.6-1.3-1.3-1.3S0,13.9,0,14.6s0.6,1.3,1.3,1.3S2.5,15.2,2.5,14.6z"/>
<path id="Path_2_" class="st0" d="M2.5,7.9c0-0.7-0.6-1.3-1.3-1.3S0,7.2,0,7.9s0.6,1.3,1.3,1.3S2.5,8.6,2.5,7.9z"/>
</svg>
