<?xml version="1.0" encoding="utf-8"?>
<svg version="1.1" xmlns="http://www.w3.org/2000/svg" xmlns:xlink="http://www.w3.org/1999/xlink" x="0px" y="0px"
	 viewBox="0 0 15.5 14.5" style="enable-background:new 0 0 15.5 14.5;" xml:space="preserve">
<g>
	<path class="st0" d="M13.2,8.1c-0.3-0.2-0.7-0.2-1,0.1l-3.7,3.7V2.8l0-0.1C8.4,2.3,8.1,2,7.8,2C7.3,2,7,2.3,7,2.8v9.2L3.3,8.2
		L3.2,8.1C2.9,7.9,2.5,8,2.2,8.2C1.9,8.5,1.9,9,2.2,9.3l5,5c0,0,0.1,0,0.1,0.1c0,0,0,0,0,0c0,0,0,0,0.1,0c0,0,0,0,0,0c0,0,0,0,0.1,0
		c0,0,0,0,0,0c0,0,0,0,0.1,0c0,0,0,0,0,0c0,0,0.1,0,0.1,0c0.1,0,0.1,0,0.2,0c0,0,0,0,0,0c0,0,0.1,0,0.1,0c0,0,0,0,0,0c0,0,0,0,0.1,0
		c0,0,0.1-0.1,0.1-0.1l5-5l0.1-0.1C13.6,8.9,13.5,8.5,13.2,8.1L13.2,8.1z"/>
	<path class="st0" d="M14.8,0h-14L0.6,0C0.3,0.1,0,0.4,0,0.8c0,0.4,0.3,0.8,0.8,0.8h14l0.1,0c0.4,0,0.6-0.4,0.6-0.7
		C15.5,0.3,15.2,0,14.8,0z"/>
</g>
</svg>
