<?xml version="1.0" encoding="utf-8"?>
<svg version="1.1" xmlns="http://www.w3.org/2000/svg" xmlns:xlink="http://www.w3.org/1999/xlink" x="0px" y="0px"
	 viewBox="0 0 16 16" style="enable-background:new 0 0 16 16;" xml:space="preserve">
<g>
	<path d="M13.5,8C13.2,8,13,8.2,13,8.5V15h-3v-3.5c0-0.3-0.2-0.5-0.5-0.5h-3C6.2,11,6,11.2,6,11.5V15H3V8.5C3,8.2,2.8,8,2.5,8
		S2,8.2,2,8.5v7C2,15.8,2.2,16,2.5,16h11c0.3,0,0.5-0.2,0.5-0.5v-7C14,8.2,13.8,8,13.5,8z M7,12h2v3H7V12z"/>
	<path d="M15.9,6.3L14,2.9V0.5C14,0.2,13.8,0,13.5,0h-11C2.2,0,2,0.2,2,0.5v2.4L0.1,6.3C0,6.4,0,6.6,0.1,6.8C0.2,6.9,0.3,7,0.5,7h15
		c0.2,0,0.3-0.1,0.4-0.2C16,6.6,16,6.4,15.9,6.3z M1.4,6l1.6-2.8C3,3.2,3,3.1,3,3V1h10v2c0,0.1,0,0.2,0.1,0.2L14.6,6H1.4z"/>
</g>
</svg>
