<?xml version="1.0" encoding="utf-8"?>
<svg version="1.1" xmlns="http://www.w3.org/2000/svg" xmlns:xlink="http://www.w3.org/1999/xlink" x="0px" y="0px"
	 viewBox="0 0 15.5 15.5" style="enable-background:new 0 0 15.5 15.5;" xml:space="preserve">
<path id="path-1_1_" class="st0" d="M7.8,0c4.3,0,7.8,3.5,7.8,7.8s-3.5,7.8-7.8,7.8S0,12,0,7.8S3.5,0,7.8,0z M7.8,1.5
	c-3.5,0-6.3,2.8-6.3,6.3S4.3,14,7.8,14S14,11.2,14,7.8S11.2,1.5,7.8,1.5z M8.5,10.5V12H7v-1.5H8.5z M7.8,3.5c0.4,0,0.7,0.1,1,0.2
	c0.3,0.1,0.6,0.3,0.8,0.5c0.2,0.2,0.4,0.5,0.5,0.8c0.1,0.3,0.2,0.6,0.2,1c0,0.3,0,0.5-0.1,0.7C10.2,6.8,10.1,7,10,7.1
	C9.9,7.3,9.8,7.4,9.7,7.6C9.6,7.7,9.4,7.8,9.3,8C9.2,8.1,9.1,8.2,9,8.3C8.9,8.4,8.8,8.5,8.7,8.6C8.6,8.7,8.5,8.9,8.5,9
	c0,0.1,0,0.2-0.1,0.3l0,0.2v0.7H7l0-0.8C7,9,7.1,8.7,7.2,8.4C7.3,8.2,7.4,8,7.6,7.8c0.1-0.1,0.2-0.2,0.3-0.3l0.2-0.2
	C8.2,7.2,8.3,7,8.5,6.9c0.1-0.1,0.2-0.3,0.3-0.5c0.1-0.2,0.1-0.3,0.1-0.6c0-0.3-0.1-0.6-0.3-0.8C8.3,4.9,8.1,4.8,7.8,4.8
	c-0.2,0-0.4,0-0.6,0.1C7,5,6.9,5.1,6.8,5.2C6.7,5.4,6.6,5.5,6.6,5.7c0,0.1-0.1,0.3-0.1,0.5l0,0.2v0.3H5.1l0-0.2c0-0.4,0-0.8,0.2-1.1
	c0.1-0.4,0.3-0.7,0.5-0.9C6,4,6.3,3.8,6.6,3.7C7,3.5,7.3,3.5,7.8,3.5z"/>
</svg>
