<?xml version="1.0" encoding="utf-8"?>
<svg version="1.1" xmlns="http://www.w3.org/2000/svg" xmlns:xlink="http://www.w3.org/1999/xlink" x="0px" y="0px"
	 viewBox="0 0 12.5 16.5" style="enable-background:new 0 0 12.5 16.5;" xml:space="preserve">
<g id="Colour_x2F_Brand-Primary" transform="translate(17.000000, 16.000000)">
	<g transform="translate(1.000000, 0.000000)">
		<g id="Mask">
			<path id="path-1_1_" d="M-11.8-16c3.5,0,6.3,2.8,6.3,6.3c0,0.5,0,0.9-0.1,1.4C-6-6.6-7-4.7-8.4-2.9C-9-2-9.7-1.3-10.3-0.6
				c-0.1,0.1-0.2,0.2-0.3,0.3l0,0L-11,0.1l-0.3,0.2c-0.3,0.3-0.7,0.3-1,0c0,0,0,0,0,0l0,0l-0.4-0.3c-0.2-0.2-0.3-0.3-0.5-0.5
				c-0.7-0.7-1.3-1.5-1.9-2.3c-1.4-1.9-2.4-3.7-2.8-5.5C-18-8.8-18-9.3-18-9.8C-18-13.2-15.2-16-11.8-16z M-11.8-14.5
				c-2.6,0-4.8,2.1-4.8,4.8c0,0.3,0,0.7,0.1,1.1c0.3,1.5,1.2,3.2,2.5,4.9c0.6,0.8,1.2,1.5,1.8,2.1l0,0l0.3,0.3l0.3-0.3
				c0.6-0.7,1.3-1.4,1.8-2.1c1.3-1.7,2.2-3.4,2.5-4.9C-7-9-7-9.4-7-9.8C-7-12.4-9.1-14.5-11.8-14.5z M-11.8-13
				c1.8,0,3.3,1.5,3.3,3.3s-1.5,3.3-3.3,3.3S-15-8-15-9.8S-13.5-13-11.8-13z M-11.8-11.5c-1,0-1.8,0.8-1.8,1.8S-12.7-8-11.8-8
				S-10-8.8-10-9.8S-10.8-11.5-11.8-11.5z"/>
		</g>
	</g>
</g>
</svg>
