<?xml version="1.0" encoding="utf-8"?>
<svg version="1.1" xmlns="http://www.w3.org/2000/svg" xmlns:xlink="http://www.w3.org/1999/xlink" x="0px" y="0px"
	 viewBox="0 0 16 13" style="enable-background:new 0 0 16 13;" xml:space="preserve">
<g>
	<path class="st0" d="M16,6.7C16,6.6,16,6.4,16,6.3c0-0.1-0.1-0.1-0.1-0.2l-3.5-3.5c-0.2-0.2-0.5-0.2-0.7,0s-0.2,0.5,0,0.7L14.3,6
		H0.5C0.2,6,0,6.2,0,6.5S0.2,7,0.5,7h13.8l-2.6,2.6c-0.2,0.2-0.2,0.5,0,0.7c0.1,0.1,0.2,0.1,0.4,0.1s0.3,0,0.4-0.1l3.5-3.5
		C15.9,6.8,15.9,6.8,16,6.7z"/>
	<path class="st0" d="M0.5,1h8C8.8,1,9,0.8,9,0.5S8.8,0,8.5,0h-8C0.2,0,0,0.2,0,0.5S0.2,1,0.5,1z"/>
	<path class="st0" d="M8.5,12h-8C0.2,12,0,12.2,0,12.5S0.2,13,0.5,13h8C8.8,13,9,12.8,9,12.5S8.8,12,8.5,12z"/>
</g>
</svg>
