<?xml version="1.0" encoding="utf-8"?>
<svg version="1.1" xmlns="http://www.w3.org/2000/svg" xmlns:xlink="http://www.w3.org/1999/xlink" x="0px" y="0px"
	 viewBox="0 0 14.2 15" style="enable-background:new 0 0 14.2 15;" xml:space="preserve">
<g>
	<path d="M13.7,0H2.5C2.2,0,2,0.2,2,0.5V11H1.7C0.8,11,0,11.8,0,12.7v1.8C0,14.8,0.2,15,0.5,15h7.1c0.3,0,0.5-0.2,0.5-0.5V13
		c0-0.5,0.4-0.9,1-0.9c0.9,0,1,0.3,1,0.8c0,1.2,0.9,2.2,2,2.2c1.1,0,2-1,2-2.2V0.5C14.2,0.2,13.9,0,13.7,0z M7.1,13v1H1v-1.3
		C1,12.3,1.3,12,1.7,12h5.6C7.2,12.3,7.1,12.6,7.1,13z M13.2,12.8c0,0.7-0.5,1.2-1,1.2c-0.6,0-1-0.5-1-1.2c0-0.8-0.4-1.8-2-1.8
		c0,0,0,0,0,0H3V1h10.2V12.8z"/>
	<path d="M4.8,3.8h6.6c0.3,0,0.5-0.2,0.5-0.5s-0.2-0.5-0.5-0.5H4.8c-0.3,0-0.5,0.2-0.5,0.5S4.5,3.8,4.8,3.8z"/>
	<path d="M4.8,6.1h6.6c0.3,0,0.5-0.2,0.5-0.5s-0.2-0.5-0.5-0.5H4.8c-0.3,0-0.5,0.2-0.5,0.5S4.5,6.1,4.8,6.1z"/>
	<path d="M4.8,8.4h6.6c0.3,0,0.5-0.2,0.5-0.5s-0.2-0.5-0.5-0.5H4.8c-0.3,0-0.5,0.2-0.5,0.5S4.5,8.4,4.8,8.4z"/>
</g>
</svg>
