<?xml version="1.0" encoding="utf-8"?>
<svg version="1.1" xmlns="http://www.w3.org/2000/svg" xmlns:xlink="http://www.w3.org/1999/xlink" x="0px" y="0px"
	 viewBox="0 0 16 16" style="enable-background:new 0 0 16 16;" xml:space="preserve">
<path class="st0" d="M15.7,14.4l-3-3.2c0.9-1.2,1.4-2.6,1.4-4.2c0-3.9-3.1-7.1-7-7.1C3.2-0.1,0,3.2,0,7.1c0,3.9,3.2,7.1,7.1,7.1
	c1.6,0,3.1-0.5,4.2-1.4l3,3c0.2,0.2,0.5,0.3,0.7,0.3s0.5-0.1,0.7-0.3C16.1,15.4,16.1,14.8,15.7,14.4z M7.1,12C4.3,12,2,9.8,2,7.1
	C2,4.4,4.3,2,7.1,2c2.8,0,5.1,2.3,5.1,5.1C12.2,9.9,9.9,12,7.1,12z"/>
</svg>
